<?xml version="1.0" standalone="no"?>
<!DOCTYPE svg PUBLIC "-//W3C//DTD SVG 20010904//EN"
 "http://www.w3.org/TR/2001/REC-SVG-20010904/DTD/svg10.dtd">
<svg version="1.0" xmlns="http://www.w3.org/2000/svg"
 width="256.000000pt" height="256.000000pt" viewBox="0 0 256.000000 256.000000"
 preserveAspectRatio="xMidYMid meet">
<metadata>
Created by potrace 1.11, written by Peter Selinger 2001-2013
</metadata>
<g transform="translate(0.000000,256.000000) scale(0.100000,-0.100000)"
fill="#000000" stroke="none">
<path d="M0 1280 l0 -1280 1280 0 1280 0 0 1280 0 1280 -1280 0 -1280 0 0
-1280z m2505 0 l0 -1225 -1225 0 -1225 0 -3 1215 c-1 668 0 1221 3 1228 3 10
254 12 1227 10 l1223 -3 0 -1225z"/>
<path d="M813 2101 c-51 -23 -76 -68 -77 -132 0 -83 64 -139 161 -139 82 0
136 46 149 128 l7 42 -87 0 -86 0 0 -30 c0 -27 3 -30 31 -30 39 0 34 -24 -5
-28 -56 -7 -85 56 -50 106 17 24 44 28 76 11 16 -8 29 -7 59 7 38 17 39 18 22
37 -43 48 -129 60 -200 28z"/>
<path d="M1151 2102 c-96 -48 -106 -181 -19 -245 32 -24 117 -34 147 -18 17 9
21 21 21 57 0 41 -2 44 -19 34 -26 -14 -74 -13 -89 2 -20 20 -15 76 7 88 25
13 68 13 76 0 14 -23 25 -7 25 35 0 40 -3 47 -26 55 -38 15 -85 12 -123 -8z"/>
<path d="M460 1983 c-25 -70 -46 -130 -48 -135 -2 -4 22 -8 53 -8 48 0 58 3
62 20 4 15 14 20 38 20 25 0 35 -5 40 -20 5 -17 15 -20 61 -20 30 0 54 3 54 6
0 4 -21 64 -46 135 l-46 129 -62 0 -61 0 -45 -127z m120 -20 c0 -7 -7 -13 -16
-13 -11 0 -14 5 -10 16 3 9 6 21 6 27 0 16 20 -14 20 -30z"/>
<path d="M2037 1415 c-97 -34 -148 -138 -112 -230 19 -51 49 -76 120 -99 90
-30 105 -38 105 -57 0 -45 -77 -44 -145 1 -16 11 -33 20 -37 20 -4 0 -25 -27
-48 -60 l-40 -59 42 -25 c84 -49 120 -60 199 -60 147 1 239 75 239 193 0 95
-37 134 -156 170 -75 22 -94 40 -68 66 19 19 40 19 94 0 23 -8 44 -15 46 -15
1 0 17 25 35 56 31 55 31 57 13 71 -55 40 -211 56 -287 28z"/>
<path d="M770 1140 l0 -280 110 0 110 0 0 90 0 90 75 0 75 0 0 75 0 75 -75 0
-75 0 0 30 0 29 83 3 82 3 3 83 3 82 -196 0 -195 0 0 -280z"/>
<path d="M1247 1413 c-10 -10 -8 -288 3 -363 17 -116 86 -181 215 -201 138
-22 264 24 315 113 24 41 25 51 28 251 l3 207 -110 0 -111 0 0 -183 c0 -208
-5 -227 -65 -227 -24 0 -38 6 -45 19 -6 12 -10 96 -10 205 l0 186 -108 0 c-60
0 -112 -3 -115 -7z"/>
<path d="M1245 755 c-119 -48 -182 -153 -173 -289 11 -167 132 -270 318 -270
107 0 172 24 237 89 40 41 55 65 69 110 47 163 -35 324 -188 370 -80 23 -191
19 -263 -10z m218 -183 c52 -54 44 -146 -17 -183 -40 -24 -73 -24 -114 1 -51
31 -68 101 -37 160 20 38 41 49 96 50 37 0 50 -5 72 -28z"/>
<path d="M770 490 l0 -280 110 0 110 0 0 280 0 280 -110 0 -110 0 0 -280z"/>
<path d="M1790 490 l0 -280 105 0 104 0 3 127 3 126 70 -126 70 -127 103 0
102 0 0 280 0 280 -105 0 -104 0 -3 -126 -3 -126 -70 124 -70 123 -102 3 -103
3 0 -281z"/>
</g>
</svg>
