<svg xmlns="http://www.w3.org/2000/svg" width="225" height="225" viewBox="0 0 52.36 52.36"><defs><style>.cls-1{fill:#000300}</style></defs><title>logo_square</title><g id="Слой_2" data-name="Слой 2"><g id="Layer_1" data-name="Layer 1"><path class="cls-1" d="M51.26 1.11v50.15H1.11V1.11h50.15M52.36 0H0v52.36h52.36V0z"/><path class="cls-1" d="M10.36 9.17h2.47l2 5.61h-2.3L12.3 14h-1.41l-.22.82h-2.3zm.84 3.39h.8l-.4-1.42zm10.2-1.15v.68a2.75 2.75 0 0 1-3.08 2.85c-2.07 0-3.3-1.21-3.3-2.93A2.93 2.93 0 0 1 18.3 9a2.92 2.92 0 0 1 2.7 1.37l-1.63.82a1.1 1.1 0 0 0-1-.56A1.23 1.23 0 0 0 17.15 12a1.25 1.25 0 0 0 1.22 1.37c.54 0 .89-.28.91-.68H18.1v-1.28zm5.14 3.19a3.21 3.21 0 0 1-1.51.34 2.9 2.9 0 0 1-3.12-3A2.94 2.94 0 0 1 25 9a2.87 2.87 0 0 1 1.54.42v2a1.65 1.65 0 0 0-1.24-.59A1.15 1.15 0 0 0 24.05 12a1.11 1.11 0 0 0 1.24 1.12 1.87 1.87 0 0 0 1.25-.51zm-10.81 8.79h8v3.3h-3.45v1.37h3.07v3.07h-3.07v3.64h-4.55zm14.27 0v6.72c0 .55.1 1.7 1.26 1.7s1.25-1.15 1.25-1.7v-6.72h4.55V30c0 1.28-.31 5.15-5.8 5.15s-5.8-3.91-5.8-5.15v-6.61zm10.22 7.35A4.67 4.67 0 0 0 43.07 32c.79 0 1-.37 1-.65 0-.65-.74-.81-1.55-1s-3.36-.83-3.36-3.35c0-2 1.43-4 4.66-4a7.46 7.46 0 0 1 4.13 1.14l-1.32 2.5A4.35 4.35 0 0 0 44.5 26c-.52 0-1.06.16-1.06.67s.75.71 1.59.92c1.73.44 3.33 1.22 3.33 3.42 0 2.57-2.06 4.09-5.1 4.09a7.46 7.46 0 0 1-4.76-1.83zm-24.49 5.95h4.55v11.37h-4.55zm6.09 5.69c0-3.08 2.13-6 6.58-6s6.59 3 6.59 6-2.13 6-6.59 6-6.58-2.93-6.58-6zm8.83 0a2.25 2.25 0 1 0-2.25 2.38 2.21 2.21 0 0 0 2.25-2.38zm5.88-5.69h4.28l3 5.34v-5.34h4.33v11.37h-4.21l-3.07-5.46v5.46h-4.33z"/></g></g></svg>