<svg xmlns="http://www.w3.org/2000/svg" width="225" height="225" viewBox="0 0 52.36 52.36">
  <defs>
    <style>.cls-1{fill:#000300;}</style>
  </defs>
  <title>logo_square</title>
  <g id="Слой_2" data-name="Слой 2">
    <g id="Layer_1" data-name="Layer 1">
      <path class="cls-1" d="M51.26,1.11V51.26H1.11V1.11H51.26M52.36,0H0V52.36H52.36V0Z"/>
      <path class="cls-1" d="M10.36,9.17h2.47l2,5.61h-2.3L12.3,14H10.89l-.22.82H8.37Zm.84,3.39H12l-.4-1.42Z"/>
      <path class="cls-1"
            d="M21.4,11.41v.68a2.75,2.75,0,0,1-3.08,2.85c-2.07,0-3.3-1.21-3.3-2.93A2.93,2.93,0,0,1,18.3,9,2.92,2.92,0,0,1,21,10.37l-1.63.82a1.1,1.1,0,0,0-1-.56A1.23,1.23,0,0,0,17.15,12a1.25,1.25,0,0,0,1.22,1.37c.54,0,.89-.28.91-.68H18.1V11.41Z"/>
      <path class="cls-1"
            d="M26.54,14.6a3.21,3.21,0,0,1-1.51.34,2.9,2.9,0,0,1-3.12-3A2.94,2.94,0,0,1,25,9a2.87,2.87,0,0,1,1.54.42v2a1.65,1.65,0,0,0-1.24-.59A1.15,1.15,0,0,0,24.05,12a1.11,1.11,0,0,0,1.24,1.12,1.87,1.87,0,0,0,1.25-.51Z"/>
      <path class="cls-1" d="M15.73,23.39h8v3.3H20.28v1.37h3.07v3.07H20.28v3.64H15.73Z"/>
      <path class="cls-1"
            d="M30,23.39v6.72c0,.55.1,1.7,1.26,1.7s1.25-1.15,1.25-1.7V23.39h4.55V30c0,1.28-.31,5.15-5.8,5.15S25.46,31.24,25.46,30V23.39Z"/>
      <path class="cls-1"
            d="M40.22,30.74A4.67,4.67,0,0,0,43.07,32c.79,0,1-.37,1-.65,0-.65-.74-.81-1.55-1s-3.36-.83-3.36-3.35c0-2,1.43-4,4.66-4a7.46,7.46,0,0,1,4.13,1.14l-1.32,2.5A4.35,4.35,0,0,0,44.5,26c-.52,0-1.06.16-1.06.67s.75.71,1.59.92c1.73.44,3.33,1.22,3.33,3.42,0,2.57-2.06,4.09-5.1,4.09a7.46,7.46,0,0,1-4.76-1.83Z"/>
      <path class="cls-1" d="M15.73,36.69h4.55V48.06H15.73Z"/>
      <path class="cls-1"
            d="M21.82,42.38c0-3.08,2.13-6,6.58-6s6.59,3,6.59,6-2.13,6-6.59,6S21.82,45.45,21.82,42.38Zm8.83,0a2.25,2.25,0,1,0-2.25,2.38A2.21,2.21,0,0,0,30.65,42.38Z"/>
      <path class="cls-1" d="M36.53,36.69h4.28l3,5.34V36.69h4.33V48.06H43.93L40.86,42.6v5.46H36.53Z"/>
    </g>
  </g>
</svg>
